<?xml version="1.0" encoding="utf-8"?>
<!-- Generator: Adobe Illustrator 18.1.1, SVG Export Plug-In . SVG Version: 6.00 Build 0)  -->
<svg version="1.1" id="Layer_1" xmlns="http://www.w3.org/2000/svg" xmlns:xlink="http://www.w3.org/1999/xlink" x="0px" y="0px" width="300" height="150"
	 viewBox="0 0 1280 800" enable-background="new 0 0 1280 800" xml:space="preserve">
<ellipse fill="#1E4287" cx="640.2" cy="415" rx="376.9" ry="385.4"/>
<circle opacity="0.74" fill="#457CBF" enable-background="new    " cx="641.7" cy="415.8" r="373.5"/>
<circle fill="#8493CA" cx="640.2" cy="411.1" r="369.6"/>
<linearGradient id="SVGID_1_" gradientUnits="userSpaceOnUse" x1="98.401" y1="784.4027" x2="98.401" y2="601.605" gradientTransform="matrix(3.8425 0 0 -3.8425 262.0941 3073.9673)">
	<stop  offset="0.4909" style="stop-color:#1E4287"/>
	<stop  offset="0.9939" style="stop-color:#17305A"/>
</linearGradient>
<circle fill="url(#SVGID_1_)" cx="640.2" cy="411.1" r="351.2"/>
<linearGradient id="SVGID_2_" gradientUnits="userSpaceOnUse" x1="174.5226" y1="649.2131" x2="22.9534" y2="735.3525" gradientTransform="matrix(3.8425 0 0 -3.8425 262.0941 3073.9673)">
	<stop  offset="0" style="stop-color:#A776A6"/>
	<stop  offset="0.3939" style="stop-color:#1E4287"/>
	<stop  offset="0.5918" style="stop-color:#1E4287"/>
	<stop  offset="1" style="stop-color:#D5DDE6;stop-opacity:0.59"/>
</linearGradient>
<path fill="url(#SVGID_2_)" d="M640.2,75.3c-74.5,0-143.3,24.6-199,65.7c-10.8,4.6-20.7,10.8-29.6,19.2l-6.5,6.5
	c-2.3,2.3-4.6,5-6.5,7.7c-4.2,5.4-8.1,10.8-11.1,16.5c-51.5,59.2-83,137.2-83,222.1c0,186.7,150.2,338.1,335.8,338.1
	S976,599.8,976,413.1S825.8,75.3,640.2,75.3z M640.2,731.6C465.4,731.6,324,589,324,413.1S465.7,94.5,640.2,94.5
	C815,94.5,956.4,237.1,956.4,413C956.8,589,815,731.6,640.2,731.6z"/>
<g>
</g>
<path fill="#0B0F17" d="M926.1,334.3c-5.8-43-25.7-78.4-59.2-106.1s-77.6-37.7-131.8-30.4l-2.3-56.9l143.3-20l-11.9-87.2L628.7,66.5
	l7.7,144.1l-159.1,16.5l7.7,72.2l87.2-8.8c-6.9,23.4-17.3,40.3-31.5,50c-14.2,10-29.6,15.4-45.7,17.3c-30,3.1-56.9-5.4-80.3-25
	c-23.4-20-36.9-45.3-40.3-77.2c-3.1-29.6,5-56.9,23.8-80.7c18.8-24.2,43-37.7,71.9-40.7c17.7-1.9,35.4,1.2,52.6,8.8
	c17.3,7.7,32.3,20.7,45.3,38.4l47.6-54.9C575.3,73.5,522.2,50,457.7,57c-50.7,5.4-92.2,28-124.5,68c-32.3,40.3-45.7,86.1-40.7,137.6
	c5.8,54.2,27.7,98,66.5,131.4s83.8,47.3,134.5,41.9c28-3.1,55.3-12.3,81.5-28c26.1-15.8,46.1-38.8,60.3-68.8
	c8.1-16.9,13.1-33,15.8-48.4c36.9-3.8,48-5,76.5-6.9c24.2-1.5,45.3,1.5,63,14.6c18.1,13.1,28.4,30.7,31.5,53.4
	c2.7,20.4-2.7,39.2-16.5,56.9c-13.8,17.7-31.1,27.7-52.3,30.7c-29.6,4.2-72.6-7.7-129.5-35l3.8,109.9c25.4,12.3,47.6,20.7,67.2,25
	c19.6,4.2,41.5,4.6,65.7,1.5c51.5-6.9,93.4-31.1,126.4-71.9C919.5,428,932.6,383.1,926.1,334.3z"/>
<path fill="#17305A" d="M359.3,393.9c38.8,33.4,83.8,47.3,134.5,41.9c28-3.1,55.3-12.3,81.5-28c26.1-15.8,46.1-38.8,60.3-68.8
	c8.1-16.9,13.1-33,15.8-48.4c36.9-3.8,48-5,76.5-6.9c24.2-1.5,45.3,1.5,63,14.6c18.1,13.1,28.4,30.7,31.5,53.4
	c2.7,20.4-2.7,39.2-16.5,56.9c-13.8,17.7-31.1,27.7-52.3,30.7c-29.6,4.2-72.6-7.7-129.5-35l3.8,109.9c25.4,12.3,47.6,20.7,67.2,25
	s41.5,4.6,65.7,1.5c51.5-6.9,93.4-31.1,126.4-71.9c32.7-40.7,45.7-85.7,39.2-134.5c-5.8-43-25.7-78.4-59.2-106.1
	s-77.6-37.7-131.8-30.4l-2.3-56.9l143.3-20l-1.2-8.1C840.6,84.8,801,62.5,758,48.2L628.7,66.5l7.7,144.1l-159.1,16.5l7.7,72.2
	l87.2-8.8c-6.9,23.4-17.3,40.3-31.5,50c-14.2,10-29.6,15.4-45.7,17.3c-30,3.1-56.9-5.4-80.3-25c-23.4-20-36.9-45.3-40.3-77.2
	c-3.1-29.6,5-56.9,23.8-80.7c18.8-24.2,43-37.7,71.9-40.7c17.7-1.9,35.4,1.2,52.6,8.8c17.3,7.7,32.3,20.7,45.3,38.4l47.6-54.9
	C584.5,85.8,546.1,62.7,500.7,57C407.3,95.3,332,170.6,292.8,265.1C299,318.2,321.3,361.2,359.3,393.9z"/>
<path fill="#365E9E" d="M669.8,61.1c65.3,5.4,125.3,28.4,175.6,64.6l25.4-3.5C830,89.9,782.4,65.7,730.1,52.6L669.8,61.1z"/>
<path fill="#365E9E" d="M295.1,279.3c1.9,11.1,4.6,21.9,8.1,32.3c34.6-117.2,128.7-209,247.1-240.5c-9.2-4.2-18.4-7.7-28.4-10.4
	C417.7,96.1,333.9,176.8,295.1,279.3z"/>
<path fill="#FFFFFF" d="M729.7,514.5c-12.7,0-24.6-1.2-35.4-3.5c-19.6-4.2-42.3-12.7-67.6-25.4l-1.2-0.8l-3.8-115.3l3.5,1.5
	c48.8,23.4,88,35.4,116.4,35.4c4.2,0,8.1-0.4,11.9-0.8c20.4-2.7,37.7-12.7,50.7-29.6c13.4-16.9,18.8-35.4,16.1-54.9
	c-3.1-21.9-13.4-39.2-30.7-51.9c-13.8-10-29.6-14.2-50.7-14.2c-3.5,0-7.3,0-11.1,0.4c-27.7,1.9-39.2,3.1-74.5,6.5
	c-2.7,15-8.1,30.7-15.4,47.3c-14.2,30.4-34.6,53.4-61.1,69.5s-54.2,25.4-82.2,28.4c-6.9,0.8-13.8,1.2-20.7,1.2
	c-43,0-81.8-14.6-115.7-43.8c-39.6-33.4-62.2-78-67.6-132.6c-5.4-51.9,8.1-98.8,40.7-139.5c32.7-40.3,74.9-63.8,126-69.2
	c7.3-0.8,14.6-1.2,21.5-1.2c55.7,0,102.2,24.2,138.7,71.9l1.2,1.5L568,154.1l-1.5-2.3c-12.7-17.7-27.7-30.4-44.6-37.7
	c-13.4-6.1-27.7-9.2-41.5-9.2c-3.5,0-6.5,0-10,0.4c-28,3.1-51.5,16.1-70.3,39.6c-18.4,23.4-26.5,50-23.4,79.2
	c3.1,30.7,16.5,56.5,39.2,75.7c20,16.5,42.3,25,66.9,25c3.8,0,7.7-0.4,11.5-0.8c15.8-1.5,30.7-7.3,44.6-16.9
	c13.1-8.8,23.1-24.2,29.6-45.7l-86.1,8.8l-8.1-76.5l158.3-16.5L624.8,33L865,0l12.7,91.8l-143.3,20l2.3,52.3
	c10.8-1.5,21.1-1.9,31.1-1.9c39.6,0,73,11.1,99.9,33c33.8,28,54.2,64.2,59.9,107.6c6.9,49.2-6.5,94.9-39.6,136
	c-33,41.1-76.1,65.7-128,72.6C750.1,513.7,739.7,514.5,729.7,514.5L729.7,514.5z"/>
<path fill="#1E4287" d="M863.8,3.5l11.9,87.2l-143.3,20l2.3,56.9c11.5-1.5,22.7-2.3,33-2.3c39.2,0,71.9,10.8,98.4,32.7
	c33.4,27.7,53.4,63,59.2,106.1c6.9,48.8-6.1,93.4-39.2,134.5c-32.7,40.7-74.9,64.9-126.4,71.9c-10.8,1.5-21.1,2.3-30.7,2.3
	c-12.3,0-24.2-1.2-35-3.5c-19.6-4.2-41.9-12.7-67.2-25L623,374.4c49.2,23.8,88.4,35.7,117.2,35.7c4.2,0,8.5-0.4,12.3-0.8
	c21.1-3.1,38.4-13.1,52.3-30.7c13.8-17.7,19.2-36.5,16.5-56.9c-3.1-22.7-13.8-40.3-31.5-53.4c-15.4-10.8-32.3-15-51.9-15
	c-3.5,0-7.3,0-11.1,0.4c-28.4,1.9-39.6,3.1-76.5,6.9c-2.7,15.4-7.7,31.1-15.8,48.4c-13.1,29.2-33,52.3-59.2,68
	c-26.1,15.8-53.4,25.4-81.5,28c-6.9,0.8-13.8,1.2-20.4,1.2c-42.7,0-80.7-14.2-114.1-43c-38.8-33.4-61.1-77.2-66.9-131.4
	c-5-51.5,8.5-97.2,40.7-137.6s73.8-63,124.5-68c7.3-0.8,14.2-1.2,21.1-1.2c55.3,0,100.7,23.4,136.8,70.7L568,150.6
	c-13.1-18.1-28-30.7-45.3-38.4c-13.8-6.1-28-9.6-42.3-9.6c-3.5,0-6.9,0-10,0.4c-28.8,3.1-52.6,16.5-71.9,40.7
	c-18.8,24.2-26.9,51.1-23.8,80.7c3.1,31.5,16.5,57.3,40.3,77.2c20.4,17.3,43,25.7,68.4,25.7c3.8,0,8.1-0.4,11.9-0.8
	c16.1-1.5,31.5-7.3,45.7-17.3c14.2-9.6,24.6-26.5,31.5-50l-87.6,9.2l-7.7-72.2l158.3-16.1L627.8,36L863.8,3.5 M868-1.9l-4.6,0.8
	L627.5,31.1l-4.2,0.8l0.4,4.2L631,176l-154.1,15.8l-4.6,0.4l0.4,4.6l7.7,72.2l0.4,4.6l4.6-0.4l80.3-8.5
	c-6.5,18.8-15.8,32.7-27.7,41.1c-13.4,9.2-28,15-43.8,16.5c-3.8,0.4-7.7,0.8-11.5,0.8c-23.8,0-45.7-8.5-65.3-24.6
	c-22.3-18.8-35.4-43.8-38.4-74.2c-3.1-28.4,4.6-54.6,23.1-77.6c18.1-23.1,41.1-36.1,68.4-38.8c3.1-0.4,6.5-0.4,9.6-0.4
	c13.4,0,27.3,3.1,40.7,9.2c16.5,7.3,31.1,20,43.4,37.3l3.5,4.6l3.8-4.2l48-55.7l2.3-2.7l-2.3-3.1c-18.4-24.2-39.6-42.3-63-54.6
	c-23.4-11.9-49.6-18.1-77.6-18.1c-6.9,0-14.2,0.4-21.9,1.2c-25.7,2.7-49.6,9.6-70.7,21.5c-21.1,11.5-40.3,28-56.9,48.4
	c-16.5,20.4-28.4,42.7-35,66.1c-6.9,23.4-8.8,48.4-6.1,74.9c2.7,27.7,10,53,21.5,75.3c11.1,22.3,27.3,42.3,46.9,59.2
	c16.9,14.6,35.7,25.7,54.9,33c19.6,7.3,40.3,11.1,62.2,11.1c6.9,0,13.8-0.4,21.1-1.2c28.8-3.1,56.5-12.7,83.4-28.8
	c26.9-16.1,47.6-40,61.9-70.7c7.3-15.8,12.7-31.1,15.4-46.1c34.2-3.5,45.3-4.6,72.6-6.5c3.8-0.4,7.3-0.4,10.8-0.4
	c20.4,0,36.1,4.6,49.2,13.8c16.9,12.3,26.9,28.8,30,50.3c2.7,19.2-2.3,36.5-15.4,53.4c-13.1,16.5-29.6,26.1-49.6,28.8
	c-3.5,0.4-7.7,0.8-11.5,0.8c-28,0-66.9-11.9-115.3-35.4l-6.9-3.5l0.4,7.7l3.8,109.9v2.7l2.3,1.2c25.4,12.7,48.4,21.1,68,25.4
	c11.1,2.3,23.4,3.8,36.1,3.8c10,0,20.4-0.8,31.5-2.3c26.1-3.5,50.3-11.5,71.9-23.8s40.7-28.8,57.3-50c16.5-20.7,28.4-43,35-65.7
	c6.5-23.1,8.5-47.3,5-72.2c-3.1-21.9-9.6-42.3-20-60.3c-10-18.1-23.8-34.6-41.1-48.4c-27.3-22.3-61.1-33.8-101.4-33.8
	c-9.2,0-18.8,0.8-28.8,1.9l-1.9-47.6l139.1-19.2l4.6-0.8l-0.8-4.6l-12.1-87L868-1.9L868-1.9z"/>
<radialGradient id="SVGID_3_" cx="496.6951" cy="368.192" r="254.3394" gradientTransform="matrix(0.9997 -2.298663e-02 9.597400e-03 0.4174 -3.4024 225.9221)" gradientUnits="userSpaceOnUse">
	<stop  offset="0" style="stop-color:#A4AFD7"/>
	<stop  offset="0.2859" style="stop-color:#A7B1D8"/>
	<stop  offset="0.4799" style="stop-color:#B0B9DC"/>
	<stop  offset="0.6467" style="stop-color:#BFC7E3"/>
	<stop  offset="0.798" style="stop-color:#D4DAEC"/>
	<stop  offset="0.9377" style="stop-color:#F0F2F8"/>
	<stop  offset="1" style="stop-color:#FFFFFF"/>
</radialGradient>
<path fill="url(#SVGID_3_)" d="M641.4,259.9l-60.4,0.7l-1.3,4.2c-7.3,24.1-18.9,41.7-34.3,52.1c-15.6,10.8-32.5,17.2-50.2,18.9
	c-4,0.4-8.3,0.8-12.7,0.8c-27.2,0-52.3-9.3-74.5-27.7h-0.1h-0.1c-10.1-8.6-18.6-18.5-25.4-29.4l-68.7,2.4c10.7,28.8,28,53.4,52,73.6
	h0.1l0,0c31.4,27.1,67.7,40.9,107.8,40.9c6.4,0,13-0.4,19.4-1.1c27-3,53-12,77.3-26.8c24.7-15.1,43.2-36.1,56.4-64.3
	C634.3,287.6,639.1,273.1,641.4,259.9L641.4,259.9z"/>
<radialGradient id="SVGID_4_" cx="414.2867" cy="750.1" r="245.7153" gradientTransform="matrix(0.9647 -0.2634 -0.1564 -0.5725 131.9521 588.4687)" gradientUnits="userSpaceOnUse">
	<stop  offset="0" style="stop-color:#A3AED5"/>
	<stop  offset="1" style="stop-color:#FFFFFF"/>
</radialGradient>
<path fill="url(#SVGID_4_)" d="M364,208.4c0.7-25.6,9.7-49.5,26.6-71l0,0l0,0c20.7-25.8,47.1-40.6,78.4-44c4.1-0.5,7.6-0.5,11.3-0.5
	c15.6,0,31.7,3.5,46.4,10.3c15.6,6.7,29.6,17.4,41.9,31.9l34.5-39.8C587.2,76,569.3,61.1,549.8,51c-21.4-11.1-45.3-16.7-71-16.7
	c-6.6,0-13.4,0.4-20.3,1.1c-47.5,5-87.2,26.8-117.9,64.8c-15.2,19-26.1,39.6-32.4,61.4c-5.1,17.6-7.3,36.4-6.6,55.9L364,208.4z"/>
<linearGradient id="SVGID_5_" gradientUnits="userSpaceOnUse" x1="56.0067" y1="746.6929" x2="97.2262" y2="746.6929" gradientTransform="matrix(3.8425 0 0 -3.8425 262.0941 3073.9673)">
	<stop  offset="0" style="stop-color:#FFFFFF"/>
	<stop  offset="9.217328e-02" style="stop-color:#E8ECF0"/>
	<stop  offset="0.1977" style="stop-color:#DAE0E8"/>
	<stop  offset="0.2848" style="stop-color:#D5DDE6"/>
	<stop  offset="0.3837" style="stop-color:#DAE1E9"/>
	<stop  offset="1" style="stop-color:#FFFFFF"/>
</linearGradient>
<polygon fill="url(#SVGID_5_)" points="606.4,216.7 636,180.2 477.3,196.3 480.7,229.4 "/>
<linearGradient id="SVGID_6_" gradientUnits="userSpaceOnUse" x1="57.375" y1="734.188" x2="80.7041" y2="734.188" gradientTransform="matrix(3.8425 0 0 -3.8425 262.0941 3073.9673)">
	<stop  offset="0" style="stop-color:#FFFFFF"/>
	<stop  offset="1" style="stop-color:#D5DDE6"/>
</linearGradient>
<polygon fill="url(#SVGID_6_)" points="482.7,245.9 485,268.6 572.2,259.4 571,237.1 "/>
<linearGradient id="SVGID_7_" gradientUnits="userSpaceOnUse" x1="95.3041" y1="776.0878" x2="159.7933" y2="776.0878" gradientTransform="matrix(3.8425 0 0 -3.8425 262.0941 3073.9673)">
	<stop  offset="0.3333" style="stop-color:#A2ADD8"/>
	<stop  offset="0.4599" style="stop-color:#ABB5DC"/>
	<stop  offset="0.6795" style="stop-color:#C6CCE7"/>
	<stop  offset="0.9641" style="stop-color:#F5F6FB"/>
	<stop  offset="1" style="stop-color:#FFFFFF"/>
</linearGradient>
<polygon fill="url(#SVGID_7_)" points="735.1,167.5 732.8,110.3 876.1,90.7 863.8,3.5 628.3,35.7 636,180.2 "/>
<linearGradient id="SVGID_8_" gradientUnits="userSpaceOnUse" x1="109.4485" y1="773.1539" x2="109.4485" y2="741.6685" gradientTransform="matrix(3.8425 0 0 -3.8425 262.0941 3073.9673)">
	<stop  offset="8.799770e-02" style="stop-color:#FFFFFF;stop-opacity:0"/>
	<stop  offset="0.6424" style="stop-color:#FFFFFF"/>
</linearGradient>
<polygon fill="url(#SVGID_8_)" points="636,100.7 632.5,202.9 731.6,190.6 732.8,102.2 "/>
<linearGradient id="SVGID_9_" gradientUnits="userSpaceOnUse" x1="757.2274" y1="440.6247" x2="791.6498" y2="303.9755">
	<stop  offset="0" style="stop-color:#8493CA"/>
	<stop  offset="1" style="stop-color:#FFFFFF"/>
</linearGradient>
<path fill="url(#SVGID_9_)" d="M916.7,304.3L916.7,304.3c-0.1-0.8-0.2-1.5-0.3-2.3l-85.2,17.4c0,0,0,0.1,0,0.1
	c3.1,22.6-3,43.9-18.3,63.2c-14.6,19-34.7,30.7-57.9,33.7l-0.1,0l-0.1,0c-3.6,0.4-8.2,0.9-13.1,0.9c-27.3,0-63.7-10.2-108.3-30.5
	l3,91.2c22.5,11,42.8,18.4,60.3,22.2c10.1,2.2,21.3,3.3,33.1,3.3c10.4,0,19.8-0.9,27.8-2.8l0.5-0.1l0.5-0.1
	c48.9-6.5,89.6-29.6,120.9-68.6C910.6,393.2,923.1,350.3,916.7,304.3L916.7,304.3z"/>
<path fill="#FFFFFF" d="M856.9,13.1l9.6,70.3l-134.9,18.4L724,103l0.4,7.7l2.3,56.9l0.4,9.2l9.2-1.2c11.1-1.5,21.9-2.3,31.9-2.3
	c18.4,0,35.7,2.7,51.5,7.7c15.4,5,29.2,12.7,41.9,23.1c15.8,13.1,28.8,28,38,45c9.2,16.5,15.4,35.4,18.4,55.7
	c3.1,23.1,1.5,45.3-4.6,66.5c-6.1,21.1-17.3,41.9-32.7,61.5c-15.8,19.6-33.8,35.4-53.8,46.5c-20,11.5-42.7,18.8-67.2,22.3
	c-10.4,1.5-20.4,2.3-29.6,2.3c-11.9,0-23.1-1.2-33-3.5c-17.7-3.8-38-11.1-60.7-22.3l-3.1-91.1c45,20.7,80.3,30.7,108.4,30.7
	c4.6,0,9.2-0.4,13.4-0.8c23.4-3.1,42.7-14.6,58-33.8c15.4-19.2,21.5-40.7,18.1-63c-3.5-25-15.4-45-35-59.2
	c-15.8-11.1-33.8-16.5-56.9-16.5c-3.8,0-7.7,0-11.5,0.4c-28.4,1.9-39.6,3.1-76.8,6.9l-6.5,0.8l-1.2,6.1c-2.3,14.6-7.7,30-15,46.1
	c-13.1,28-32.3,50-56.9,64.9c-25,15-51.1,24.2-78,26.9c-6.5,0.8-13.1,1.2-19.6,1.2c-20,0-39.6-3.5-57.6-10.4
	c-18.1-6.9-35.4-17.3-51.1-30.7c-18.4-15.8-33-34.6-43.8-55.3c-10.8-20.7-17.3-44.6-20-70.7c-2.7-24.6-0.4-48,5.8-69.9
	c6.5-21.9,17.3-42.7,32.7-61.5c15.4-19.2,33-34.2,52.6-45s41.9-17.7,66.1-20c6.9-0.8,13.8-1.2,20.4-1.2c26.1,0,50.3,5.8,71.9,16.9
	c20,10.4,38,25.4,54.2,45.3l-36.5,41.9c-12.3-15-26.5-25.7-42.3-33c-15-6.9-30.4-10.4-45.7-10.4c-3.5,0-7.3,0-11.1,0.4
	c-31.1,3.8-57.3,18.4-77.6,44.2s-28.8,54.9-25.7,86.8c3.5,33.8,18.1,61.5,43,82.6c21.9,18.4,46.5,27.7,73.8,27.7
	c4.2,0,8.5-0.4,12.7-0.8c17.7-1.9,34.2-8.1,49.6-18.8c15.8-10.8,27.7-29.2,35-54.6l3.5-11.9l-12.3,1.2l-78.8,8.1l-5.8-54.9
	l149.9-15.4l8.1-0.8l-0.4-8.1L636.7,43L856.9,13.1 M863.8,3.5L628.3,35.7l7.7,144.1l-158.7,16.5l7.7,72.2l87.2-8.8
	c-6.9,23.4-17.3,40.3-31.5,50c-14.2,10-29.6,15.4-45.7,17.3c-4.2,0.4-8.1,0.8-11.9,0.8c-25.4,0-48-8.5-68.4-25.7
	c-23.4-20-36.9-45.3-40.3-77.2c-3.1-29.6,5-56.9,23.8-80.7c18.8-24.2,43-37.7,71.9-40.7c3.5-0.4,6.9-0.4,10-0.4
	c14.2,0,28.4,3.1,42.3,9.6c17.3,7.7,32.3,20.7,45.3,38.4l48-55.3C579.5,48.4,534.1,25,478.8,25c-6.9,0-13.8,0.4-21.1,1.2
	c-50.7,5.4-92.2,28-124.5,68c-32.3,40.3-45.7,86.1-40.7,137.6c5.8,54.2,27.7,98,66.5,131.4c33.8,28.8,71.9,43,114.5,43
	c6.5,0,13.4-0.4,20.4-1.2c28-3.1,55.3-12.3,81.5-28s46.1-38.8,60.3-68.8c8.1-16.9,13.1-33,15.8-48.4c36.9-3.8,48-5,76.5-6.9
	c3.8-0.4,7.7-0.4,11.1-0.4c19.6,0,36.9,3.8,51.9,15c18.1,13.1,28.4,30.7,31.5,53.4c2.7,20.4-2.7,39.2-16.5,56.9
	s-31.1,27.7-52.3,30.7c-3.8,0.4-8.1,0.8-12.3,0.8c-28.8,0-68-11.9-117.2-35.7l3.8,109.9c25.4,12.3,47.6,20.7,67.2,25
	c10.8,2.3,22.7,3.5,35,3.5c9.6,0,20-0.8,30.7-2.3c51.5-6.9,93.4-31.1,126.4-71.9c32.7-40.7,45.7-85.7,39.2-134.5
	c-5.8-43-25.7-78.4-59.2-106.1c-26.5-21.9-59.2-32.7-98.4-32.7c-10.8,0-21.5,0.8-33,2.3l-2.3-56.9l143.3-20L863.8,3.5L863.8,3.5z"/>
<path fill="#17305A" d="M459.6,619.4c2.3-1.9,5.4-3.8,8.5-5c3.5-1.2,7.3-1.9,11.5-1.9c1.9,0,4.2,0,6.5,0.4s4.6,0.8,6.5,1.5
	c2.3,0.8,4.2,1.5,6.5,2.3c1.9,0.8,3.8,1.9,5.8,3.1l3.1,1.9v-14.6l-1.2-0.4c-3.8-1.9-8.1-3.5-12.7-4.6s-9.6-1.5-14.6-1.5
	c-6.1,0-11.9,0.8-16.9,2.3c-5.4,1.5-10,4.2-13.8,7.3s-6.9,6.9-9.2,11.5c-2.3,4.6-3.5,9.6-3.5,15.4c0,5,0.8,9.6,2.7,13.8
	c1.9,4.2,4.6,8.1,8.1,11.1c3.5,3.1,8.1,5.4,13.1,7.3c5,1.9,10.8,2.7,17.3,2.7c5.4,0,10.8-0.4,15.4-1.5c5-1.2,9.6-2.7,13.8-4.6
	l1.2-0.4V634H473v11.5h19.2v12.3c0,0.8-3.8,1.2-5.8,1.5c-2.7,0.4-5.4,0.8-7.7,0.8c-4.6,0-8.5-0.8-11.5-1.9c-3.1-1.2-6.1-2.7-8.1-5
	c-2.3-1.9-3.8-4.6-5-7.3s-1.5-6.1-1.5-9.6s0.8-6.9,1.9-9.6C455.8,624,457.3,621.3,459.6,619.4z"/>
<path fill="#17305A" d="M551.4,603.3l-32.3,69.2H536l8.1-19.2h27.7l8.8,19.2h16.9l-32.7-69.2H551.4z M558.3,619.4V619l8.5,19.2
	h-16.9L558.3,619.4z"/>
<path fill="#17305A" d="M677.1,603.3l-22.7,48.8c-0.4,0.4-0.4,0.4-0.4,1.2l0,0c0-0.4-0.8,0-1.2-0.8l-23.4-49.2h-15.8l-5.8,69.2h15
	l3.5-44.2l20.4,44.2h13.1l20-43.4l2.7,43.4h15l-3.8-69.2H677.1z"/>
<polygon fill="#17305A" points="734.7,611 761.6,611 761.6,603.3 719.3,603.3 719.3,672.4 761.6,672.4 761.6,660.9 734.7,660.9 
	734.7,641.7 761.6,641.7 761.6,630.2 734.7,630.2 "/>
<path fill="#17305A" d="M508,637.8h-34.6v7.7h19.2v12.3c-3.8,1.2-6.5,1.9-10.8,1.9c-26.9,1.5-29.2-17.3-29.2-23.4
	c-0.4-11.5,7.7-24.2,29.2-23.4c8.1,0.4,18.8,4.2,26.5,9.2v-15c-7.7-4.2-16.5-6.9-26.5-6.9c-32.3,0-45.7,18.8-45.7,35.7
	c0,8.5,3.5,37.3,45.7,35.7c10-0.4,18.8-2.7,26.5-6.5v-27.3H508z"/>
<path fill="#17305A" d="M826.9,604c0-0.4-7.3-2.7-14.2-3.5c-10-1.2-16.9,0.4-23.4,3.8c-6.5,3.5-11.1,10.4-10,18.8
	c0,0,0.4,4.6,4.2,8.5s8.5,6.1,20,10c9.6,3.1,11.1,5.4,11.5,6.9s1.5,6.9-3.8,9.6c-5.4,2.7-13.1,0.8-15,0.4c-1.9-0.4-7.7-1.5-15.4-6.9
	c0,4.2,0,11.9,0,14.6c0,1.2,8.8,5,20.7,5.4c0,0,9.6,0.4,16.9-2.7c3.8-1.5,6.5-3.8,8.5-6.1c3.5-3.8,4.6-8.5,4.6-10.8
	c0.8-9.6-3.8-15.4-12.3-19.6c-4.2-1.9-10.8-4.2-17.3-6.5c-5.8-2.3-7.7-5.4-6.1-9.2c1.9-3.8,6.5-5.4,13.8-4.6
	c1.9,0.4,4.2,0.4,6.1,0.8c3.8,0.8,7.7,1.9,11.5,3.8V604H826.9z"/>
<path fill="#131F48" d="M459.6,619.4c2.3-1.9,5.4-3.8,8.5-5c3.5-1.2,7.3-1.9,11.5-1.9c1.9,0,4.2,0,6.5,0.4s4.6,0.8,6.5,1.5
	c2.3,0.8,4.2,1.5,6.5,2.3c1.9,0.8,3.8,1.9,5.8,3.1l3.1,1.9v-14.6l-1.2-0.4c-3.8-1.9-8.1-3.5-12.7-4.6s-9.6-1.5-14.6-1.5
	c-6.1,0-11.9,0.8-16.9,2.3c-5.4,1.5-10,4.2-13.8,7.3s-6.9,6.9-9.2,11.5c-2.3,4.6-3.5,9.6-3.5,15.4c0,5,0.8,9.6,2.7,13.8
	c1.9,4.2,4.6,8.1,8.1,11.1c3.5,3.1,8.1,5.4,13.1,7.3c5,1.9,10.8,2.7,17.3,2.7c5.4,0,10.8-0.4,15.4-1.5c5-1.2,9.6-2.7,13.8-4.6
	l1.2-0.4V634H473v11.5h19.2v12.3c0,0.8-3.8,1.2-5.8,1.5c-2.7,0.4-5.4,0.8-7.7,0.8c-4.6,0-8.5-0.8-11.5-1.9c-3.1-1.2-6.1-2.7-8.1-5
	c-2.3-1.9-3.8-4.6-5-7.3s-1.5-6.1-1.5-9.6s0.8-6.9,1.9-9.6C455.8,624,457.3,621.3,459.6,619.4z"/>
<path fill="#131F48" d="M551.4,603.3l-32.3,69.2H536l8.1-19.2h27.7l8.8,19.2h16.9l-32.7-69.2H551.4z M558.3,619.4V619l8.5,19.2
	h-16.9L558.3,619.4z"/>
<path fill="#131F48" d="M677.1,603.3l-22.7,48.8c-0.4,0.4-0.4,0.4-0.4,1.2l0,0c0-0.4-0.8,0-1.2-0.8l-23.4-49.2h-15.8l-5.8,69.2h15
	l3.5-44.2l20.4,44.2h13.1l20-43.4l2.7,43.4h15l-3.8-69.2H677.1z"/>
<polygon fill="#131F48" points="734.7,611 761.6,611 761.6,603.3 719.3,603.3 719.3,672.4 761.6,672.4 761.6,660.9 734.7,660.9 
	734.7,641.7 761.6,641.7 761.6,630.2 734.7,630.2 "/>
<path fill="#131F48" d="M508,637.8h-34.6v7.7h19.2v12.3c-3.8,1.2-6.5,1.9-10.8,1.9c-26.9,1.5-29.2-17.3-29.2-23.4
	c-0.4-11.5,7.7-24.2,29.2-23.4c8.1,0.4,18.8,4.2,26.5,9.2v-15c-7.7-4.2-16.5-6.9-26.5-6.9c-32.3,0-45.7,18.8-45.7,35.7
	c0,8.5,3.5,37.3,45.7,35.7c10-0.4,18.8-2.7,26.5-6.5v-27.3H508z"/>
<path fill="#131F48" d="M826.9,604c0-0.4-7.3-2.7-14.2-3.5c-10-1.2-16.9,0.4-23.4,3.8c-6.5,3.5-11.1,10.4-10,18.8
	c0,0,0.4,4.6,4.2,8.5s8.5,6.1,20,10c9.6,3.1,11.1,5.4,11.5,6.9s1.5,6.9-3.8,9.6c-5.4,2.7-13.1,0.8-15,0.4c-1.9-0.4-7.7-1.5-15.4-6.9
	c0,4.2,0,11.9,0,14.6c0,1.2,8.8,5,20.7,5.4c0,0,9.6,0.4,16.9-2.7c3.8-1.5,6.5-3.8,8.5-6.1c3.5-3.8,4.6-8.5,4.6-10.8
	c0.8-9.6-3.8-15.4-12.3-19.6c-4.2-1.9-10.8-4.2-17.3-6.5c-5.8-2.3-7.7-5.4-6.1-9.2c1.9-3.8,6.5-5.4,13.8-4.6
	c1.9,0.4,4.2,0.4,6.1,0.8c3.8,0.8,7.7,1.9,11.5,3.8V604H826.9z"/>
<path fill="#FFFFFF" d="M551.4,591.7l-32.3,69.2H536l8.1-15.4h27.7l8.8,15.4h16.9l-32.7-69.2H551.4z M558.3,613.6v0.4l8.5,20h-16.9
	L558.3,613.6z"/>
<path fill="#FFFFFF" d="M677.1,591.7l-22.7,50.7c-0.4,0.4-0.4,1.9-0.4,2.7l0,0c0-0.4-0.8-1.9-1.2-2.3l-23.4-51.1h-15.8l-5.8,69.2h15
	l3.5-44.2l20.4,44.2h13.1l20-43.4l2.7,43.4h15l-3.8-69.2L677.1,591.7L677.1,591.7z"/>
<polygon fill="#FFFFFF" points="734.7,607.1 761.6,607.1 761.6,591.7 719.3,591.7 719.3,660.9 761.6,660.9 761.6,645.5 734.7,645.5 
	734.7,634 761.6,634 761.6,618.6 734.7,618.6 "/>
<path fill="#FFFFFF" d="M508,626.3h-34.6v11.5h19.2v12.3c-3.8,1.2-6.5,1.9-10.8,1.9c-26.9,1.5-29.2-17.3-29.2-23.4
	c-0.4-11.5,7.7-24.2,29.2-23.4c8.1,0.4,18.8,4.2,26.5,9.2v-15c-7.7-4.2-16.5-6.9-26.5-6.9c-32.3,0-45.7,18.8-45.7,35.7
	c0,8.5,3.5,37.3,45.7,35.7c10-0.4,18.8-2.7,26.5-6.5v-31.1H508z"/>
<path fill="#FFFFFF" d="M826.9,596.3c0-0.4-7.3-2.7-14.2-3.5c-10-1.2-16.9,0.4-23.4,3.8c-6.5,3.5-11.1,10.4-10,18.8
	c0,0,0.4,4.6,4.2,8.5c3.8,3.8,8.5,6.1,20,10c9.6,3.1,11.1,5.4,11.5,6.9s1.5,6.9-3.8,9.6c-5.4,2.7-13.1,0.8-15,0.4
	c-1.9-0.4-7.7-1.5-15.4-6.9c0,4.2,0,11.9,0,14.6c0,1.2,8.8,5,20.7,5.4c0,0,9.6,0.4,16.9-2.7c3.8-1.5,6.5-3.8,8.5-6.1
	c3.5-3.8,4.6-8.5,4.6-10.8c0.8-9.6-3.8-15.4-12.3-19.6c-4.2-1.9-10.8-4.2-17.3-6.5c-5.8-2.3-7.7-5.4-6.1-9.2
	c1.9-3.8,6.5-5.4,13.8-4.6c1.9,0.4,4.2,0.4,6.1,0.8c3.8,0.8,7.7,1.9,11.5,3.8v-12.7H826.9z"/>
<path fill="#FFFFFF" d="M901.9,103.4c0-32.3,25-57.6,58.8-57.6c32.7,0,56.9,25.7,56.9,57.6c0,32.3-25,57.6-56.9,57.6
	C926.8,161,901.9,135.3,901.9,103.4z M1005.2,103.4c0-26.1-18.4-47.6-45.7-47.6c-26.1,0-44.6,19.6-44.6,47.6
	c0,26.1,18.4,46.9,45.7,46.9C988.7,150.2,1005.2,129.5,1005.2,103.4z M949.9,130.6c0,0.8,0,1.2-1.2,1.2h-9.6c-1.2,0-1.2-0.8-1.2-1.2
	V74.2c0-0.8,0.8-1.2,1.2-1.2c1.2,0,11.1,0,18.8,0c16.5,0,25,5.8,25,17.3c0,8.5-4.6,13.1-13.8,16.1c3.1,3.5,15,18.4,18.4,23.8
	c0.8,0.8,0.8,1.9-0.8,1.9h-10c-1.2,0-2.3,0-3.1-1.2c-3.1-3.5-8.8-11.9-14.2-19.6c-1.2-1.2-1.9-1.9-3.1-1.9h-6.5L949.9,130.6
	L949.9,130.6z M949.9,100.3h7.3c10.8,0,13.8-4.2,13.8-8.8c0-5.4-3.5-8.8-13.1-8.8c-1.9,0-7.3,0-7.7,0v17.7L949.9,100.3L949.9,100.3z
	"/>
<radialGradient id="SVGID_10_" cx="868.2541" cy="617.571" r="136.0074" gradientTransform="matrix(1 0 0 -1 0 800)" gradientUnits="userSpaceOnUse">
	<stop  offset="0" style="stop-color:#A3AED5"/>
	<stop  offset="1" style="stop-color:#FFFFFF"/>
</radialGradient>
<path fill="url(#SVGID_10_)" d="M767.8,173.2c-11.4,0-20.8,0.6-29.6,1.8l-2.1,0.3l2.6,40.6c27.4-5,56.8-0.1,82.3,15.9
	c28.9,18.1,47.1,46.8,52.7,77.9l42.7-7.7c-5.7-39.3-24.4-72.4-55.6-98.3C835.8,183.5,804.6,173.2,767.8,173.2z"/>
</svg>
